0
SECTION
2
HEADER
9
$INSUNITS
70
4
9
$ACADVER
1
AC1014
9
$HANDSEED
5
FFFF
0
ENDSEC
0
SECTION
2
TABLES
0
TABLE
2
VPORT
5
8
100
AcDbSymbolTable
0
ENDTAB
0
TABLE
2
LTYPE
5
5
100
AcDbSymbolTable
0
LTYPE
5
14
100
AcDbSymbolTableRecord
100
AcDbLinetypeTableRecord
2
BYBLOCK
70
0
0
LTYPE
5
15
100
AcDbSymbolTableRecord
100
AcDbLinetypeTableRecord
2
BYLAYER
70
0
0
LTYPE
5
16
100
AcDbSymbolTableRecord
100
AcDbLinetypeTableRecord
2
DASHED
70
0
3
Dashed __ __ __ __ __ __ __ __ __ __ __ __ __ _
72
65
73
2
40
0.75
49
0.5
74
0
49
-0.25
74
0
0
ENDTAB
0
TABLE
2
LAYER
5
2
100
AcDbSymbolTable
70
2
0
LAYER
5
50
100
AcDbSymbolTableRecord
100
AcDbLayerTableRecord
2
0
70
0
62
7
6
CONTINUOUS
0
ENDTAB
0
TABLE
2
STYLE
5
3
100
AcDbSymbolTable
70
1
0
STYLE
5
11
100
AcDbSymbolTableRecord
100
AcDbTextStyleTableRecord
2
STANDARD
70
0
0
ENDTAB
0
TABLE
2
VIEW
5
6
100
AcDbSymbolTable
70
0
0
ENDTAB
0
TABLE
2
UCS
5
7
100
AcDbSymbolTable
70
0
0
ENDTAB
0
TABLE
2
APPID
5
9
100
AcDbSymbolTable
70
2
0
APPID
5
12
100
AcDbSymbolTableRecord
100
AcDbRegAppTableRecord
2
ACAD
70
0
0
ENDTAB
0
TABLE
2
DIMSTYLE
5
A
100
AcDbSymbolTable
70
1
0
ENDTAB
0
TABLE
2
BLOCK_RECORD
5
1
100
AcDbSymbolTable
70
1
0
BLOCK_RECORD
5
1F
100
AcDbSymbolTableRecord
100
AcDbBlockTableRecord
2
*MODEL_SPACE
0
BLOCK_RECORD
5
1B
100
AcDbSymbolTableRecord
100
AcDbBlockTableRecord
2
*PAPER_SPACE
0
ENDTAB
0
ENDSEC
0
SECTION
2
BLOCKS
0
BLOCK
5
20
100
AcDbEntity
100
AcDbBlockBegin
2
*MODEL_SPACE
0
ENDBLK
5
21
100
AcDbEntity
100
AcDbBlockEnd
0
BLOCK
5
1C
100
AcDbEntity
100
AcDbBlockBegin
2
*PAPER_SPACE
0
ENDBLK
5
1D
100
AcDbEntity
100
AcDbBlockEnd
0
ENDSEC
0
SECTION
2
ENTITIES
0
LWPOLYLINE
5
100
100
AcDbEntity
8
0
100
AcDbPolyline
90
28
70
1
43
0.0
10
3.3306690738754696e-14
20
158.91515387125958
42
1.2413454529722319
10
-11.1398079538868
20
155.35821471359048
42
-0.41421356237308055
10
-11.707147329752701
20
153.24087533772462
10
-57.019237886467053
20
127.07992765726138
10
-58.519237886466797
20
129.67800386861427
10
-67.179491924311193
20
124.67800386861425
10
-65.679491924311478
20
122.07992765726141
10
-82.999999999999972
20
112.07992765726088
10
-82.999999999999972
20
108.07992765726087
10
-79.999999999999972
20
108.07992765726087
10
-79.999999999999972
20
68.039963828630434
10
-82.999999999999972
20
68.039963828630434
10
-82.999999999999972
20
43.039963828630434
10
-79.999999999999972
20
43.039963828630434
10
-80
20
0
10
-64.000000000000014
20
0
10
-64.000000000000014
20
3.0000000000000004
10
-48.000000000000007
20
3.0000000000000004
10
-48.000000000000007
20
0
10
-32.000000000000007
20
0
10
-32.000000000000007
20
3.0000000000000004
10
-16.000000000000007
20
3.0000000000000004
10
-16
20
0
10
0
20
0
10
3.1086244689504383e-14
20
130
10
-2.9999999999999849
20
130
10
-2.9999999999999805
20
145
10
1.7763568394002505e-14
20
145
0
CIRCLE
5
101
100
AcDbEntity
8
0
100
AcDbCircle
10
-18.911221747715967
20
127.66359040237941
30
5.5511151231257827e-16
40
1.7500000000000075
210
0
220
-0
230
1
0
CIRCLE
5
102
100
AcDbEntity
8
0
100
AcDbCircle
10
-18.911221747715967
20
127.66359040237941
30
5.5511151231257827e-16
40
1.7500000000000075
210
0
220
-0
230
1
0
LINE
5
103
100
AcDbEntity
8
0
100
AcDbLine
10
-16.661221747715981
20
120.21359040237941
30
0
11
-26.66122174771602
21
120.21359040237942
31
0
6
DASHED
0
LINE
5
104
100
AcDbEntity
8
0
100
AcDbLine
10
-26.66122174771602
20
120.21359040237942
30
0
11
-26.661221747716031
21
117.71359040237942
31
0
6
DASHED
0
LINE
5
105
100
AcDbEntity
8
0
100
AcDbLine
10
-26.661221747716031
20
117.71359040237942
30
0
11
-16.661221747715988
21
117.71359040237941
31
0
6
DASHED
0
LINE
5
106
100
AcDbEntity
8
0
100
AcDbLine
10
-16.661221747715988
20
117.71359040237941
30
0
11
-16.661221747715981
21
120.21359040237941
31
0
6
DASHED
0
LWPOLYLINE
5
107
100
AcDbEntity
8
0
100
AcDbPolyline
90
4
70
1
43
0.0
10
-27.661221762617195
20
116.71359038747826
10
-15.661221732814832
20
116.71359038747825
10
-15.661221732814814
20
121.21359041728057
10
-27.661221762617178
20
121.21359041728059
0
CIRCLE
5
108
100
AcDbEntity
8
0
100
AcDbCircle
10
-51.589050661812124
20
107.03008222192059
30
0
40
3.0000000000000004
210
0
220
0
230
1
0
CIRCLE
5
109
100
AcDbEntity
8
0
100
AcDbCircle
10
-5.9574039769433291
20
158.35027704472819
30
0
40
2.9841246622753594
210
0
220
-0
230
1
0
LINE
5
110
100
AcDbEntity
8
0
100
AcDbLine
10
-12.790414964217298
20
87.878576192428341
30
0
11
-15.2904149642173
21
87.878576192428355
31
0
0
ARC
5
111
100
AcDbEntity
8
0
100
AcDbCircle
10
-12.790414964217295
20
86.878576192428341
30
0
40
0.99999999999999645
210
0
220
0
230
1
100
AcDbArc
50
-89.999999999999389
51
90.000000000000398
0
LINE
5
112
100
AcDbEntity
8
0
100
AcDbLine
10
-15.290414964217298
20
85.878576192428341
30
0
11
-12.790414964217305
21
85.878576192428326
31
0
0
ARC
5
113
100
AcDbEntity
8
0
100
AcDbCircle
10
-15.290414964217298
20
86.878576192428341
30
0
40
0.99999999999999645
210
0
220
0
230
1
100
AcDbArc
50
90.000000000000512
51
270.00000000000051
0
LINE
5
114
100
AcDbEntity
8
0
100
AcDbLine
10
-12.790414964217325
20
63.878576192428383
30
0
11
-15.290414964217318
21
63.878576192428397
31
0
0
ARC
5
115
100
AcDbEntity
8
0
100
AcDbCircle
10
-12.790414964217319
20
62.878576192428397
30
0
40
1.0000000000000053
210
0
220
0
230
1
100
AcDbArc
50
-90
51
90
0
LINE
5
116
100
AcDbEntity
8
0
100
AcDbLine
10
-15.290414964217319
20
61.878576192428412
30
0
11
-12.790414964217327
21
61.878576192428405
31
0
0
ARC
5
117
100
AcDbEntity
8
0
100
AcDbCircle
10
-15.290414964217325
20
62.878576192428397
30
0
40
1.0000000000000053
210
0
220
-0
230
1
100
AcDbArc
50
90
51
270
0
LINE
5
118
100
AcDbEntity
8
0
100
AcDbLine
10
-37.290414964217263
20
63.878576192428476
30
0
11
-39.790414964217256
21
63.878576192428483
31
0
0
ARC
5
119
100
AcDbEntity
8
0
100
AcDbCircle
10
-39.790414964217256
20
62.878576192428497
30
0
40
0.99999999999999645
210
0
220
-0
230
1
100
AcDbArc
50
89.999999999999588
51
269.9999999999996
0
LINE
5
120
100
AcDbEntity
8
0
100
AcDbLine
10
-39.790414964217256
20
61.878576192428497
30
0
11
-37.290414964217263
21
61.87857619242849
31
0
0
ARC
5
121
100
AcDbEntity
8
0
100
AcDbCircle
10
-37.290414964217263
20
62.878576192428483
30
0
40
0.99999999999999645
210
0
220
0
230
1
100
AcDbArc
50
-90.000000000000398
51
90
0
ARC
5
122
100
AcDbEntity
8
0
100
AcDbCircle
10
-37.290414964217248
20
86.878576192428412
30
0
40
0.99999999999999645
210
0
220
0
230
1
100
AcDbArc
50
-89.99999999999919
51
90.00000000000081
0
LINE
5
123
100
AcDbEntity
8
0
100
AcDbLine
10
-37.290414964217234
20
87.878576192428412
30
0
11
-39.790414964217227
21
87.878576192428426
31
0
0
ARC
5
124
100
AcDbEntity
8
0
100
AcDbCircle
10
-39.790414964217234
20
86.878576192428426
30
0
40
0.99999999999999645
210
0
220
-0
230
1
100
AcDbArc
50
90
51
269.9999999999996
0
LINE
5
125
100
AcDbEntity
8
0
100
AcDbLine
10
-39.790414964217234
20
85.878576192428426
30
0
11
-37.290414964217241
21
85.878576192428412
31
0
0
LINE
5
126
100
AcDbEntity
8
0
100
AcDbLine
10
-31.190414964217268
20
88.378576192428369
30
0
11
-21.390414964217296
21
88.378576192428326
31
0
6
DASHED
0
LINE
5
127
100
AcDbEntity
8
0
100
AcDbLine
10
-21.390414964217296
20
88.378576192428326
30
0
11
-21.390414964217307
21
85.778576192428332
31
0
6
DASHED
0
LINE
5
128
100
AcDbEntity
8
0
100
AcDbLine
10
-21.390414964217307
20
85.778576192428332
30
0
11
-31.190414964217275
21
85.778576192428361
31
0
6
DASHED
0
LINE
5
129
100
AcDbEntity
8
0
100
AcDbLine
10
-31.190414964217275
20
85.778576192428361
30
0
11
-31.190414964217268
21
88.378576192428369
31
0
6
DASHED
0
LWPOLYLINE
5
130
100
AcDbEntity
8
0
100
AcDbPolyline
90
4
70
1
43
0.0
10
-20.890414964217307
20
85.278576192428318
10
-31.690414964217272
20
85.278576192428361
10
-31.690414964217268
20
88.878576192428369
10
-20.8904149642173
20
88.878576192428341
0
LWPOLYLINE
5
131
100
AcDbEntity
8
0
100
AcDbPolyline
90
4
70
1
43
0.0
10
-74.624241751262147
20
35.874000000000024
10
-69.124241751262133
20
35.874000000000009
10
-69.124241751262133
20
15.226000000000024
10
-74.624241751262147
20
15.226000000000024
0
LINE
5
132
100
AcDbEntity
8
0
100
AcDbLine
10
-26.66122174771602
20
120.21359040237942
30
0
11
-16.661221747715988
21
117.71359040237941
31
0
6
DASHED
0
LINE
5
133
100
AcDbEntity
8
0
100
AcDbLine
10
-21.390414964217296
20
88.378576192428326
30
0
11
-31.190414964217275
21
85.778576192428361
31
0
6
DASHED
0
LINE
5
134
100
AcDbEntity
8
0
100
AcDbLine
10
-26.290414964217284
20
87.078576192428329
30
0
11
-51.589050661812124
21
107.03008222192059
31
0
6
DASHED
0
LINE
5
135
100
AcDbEntity
8
0
100
AcDbLine
10
-51.589050661812124
20
107.03008222192059
30
0
11
-21.661221747716006
21
118.96359040237942
31
0
6
DASHED
0
ENDSEC
0
SECTION
2
OBJECTS
0
DICTIONARY
5
C
100
AcDbDictionary
3
ACAD_GROUP
350
D
3
ACAD_MLINESTYLE
350
17
0
DICTIONARY
5
D
100
AcDbDictionary
0
DICTIONARY
5
1A
330
C
100
AcDbDictionary
0
DICTIONARY
5
17
100
AcDbDictionary
0
ENDSEC
0
EOF
