0
SECTION
2
HEADER
9
$INSUNITS
70
4
9
$ACADVER
1
AC1014
9
$HANDSEED
5
FFFF
0
ENDSEC
0
SECTION
2
TABLES
0
TABLE
2
VPORT
5
8
100
AcDbSymbolTable
0
ENDTAB
0
TABLE
2
LTYPE
5
5
100
AcDbSymbolTable
0
LTYPE
5
14
100
AcDbSymbolTableRecord
100
AcDbLinetypeTableRecord
2
BYBLOCK
70
0
0
LTYPE
5
15
100
AcDbSymbolTableRecord
100
AcDbLinetypeTableRecord
2
BYLAYER
70
0
0
LTYPE
5
16
100
AcDbSymbolTableRecord
100
AcDbLinetypeTableRecord
2
DASHED
70
0
3
Dashed __ __ __ __ __ __ __ __ __ __ __ __ __ _
72
65
73
2
40
0.75
49
0.5
74
0
49
-0.25
74
0
0
ENDTAB
0
TABLE
2
LAYER
5
2
100
AcDbSymbolTable
70
2
0
LAYER
5
50
100
AcDbSymbolTableRecord
100
AcDbLayerTableRecord
2
0
70
0
62
7
6
CONTINUOUS
0
ENDTAB
0
TABLE
2
STYLE
5
3
100
AcDbSymbolTable
70
1
0
STYLE
5
11
100
AcDbSymbolTableRecord
100
AcDbTextStyleTableRecord
2
STANDARD
70
0
0
ENDTAB
0
TABLE
2
VIEW
5
6
100
AcDbSymbolTable
70
0
0
ENDTAB
0
TABLE
2
UCS
5
7
100
AcDbSymbolTable
70
0
0
ENDTAB
0
TABLE
2
APPID
5
9
100
AcDbSymbolTable
70
2
0
APPID
5
12
100
AcDbSymbolTableRecord
100
AcDbRegAppTableRecord
2
ACAD
70
0
0
ENDTAB
0
TABLE
2
DIMSTYLE
5
A
100
AcDbSymbolTable
70
1
0
ENDTAB
0
TABLE
2
BLOCK_RECORD
5
1
100
AcDbSymbolTable
70
1
0
BLOCK_RECORD
5
1F
100
AcDbSymbolTableRecord
100
AcDbBlockTableRecord
2
*MODEL_SPACE
0
BLOCK_RECORD
5
1B
100
AcDbSymbolTableRecord
100
AcDbBlockTableRecord
2
*PAPER_SPACE
0
ENDTAB
0
ENDSEC
0
SECTION
2
BLOCKS
0
BLOCK
5
20
100
AcDbEntity
100
AcDbBlockBegin
2
*MODEL_SPACE
0
ENDBLK
5
21
100
AcDbEntity
100
AcDbBlockEnd
0
BLOCK
5
1C
100
AcDbEntity
100
AcDbBlockBegin
2
*PAPER_SPACE
0
ENDBLK
5
1D
100
AcDbEntity
100
AcDbBlockEnd
0
ENDSEC
0
SECTION
2
ENTITIES
0
CIRCLE
5
100
100
AcDbEntity
8
0
100
AcDbCircle
10
5.9574039769433318
20
158.35027704472819
30
0
40
2.9841246622753594
210
0
220
0
230
1
0
LWPOLYLINE
5
101
100
AcDbEntity
8
0
100
AcDbPolyline
90
28
70
1
43
0.0
10
79.999999999999972
20
68.03996382863042
10
79.999999999999972
20
108.07992765726087
10
82.999999999999972
20
108.07992765726087
10
82.999999999999972
20
112.07992765726088
10
65.679491924311478
20
122.07992765726141
10
67.179491924311193
20
124.67800386861425
10
58.519237886466797
20
129.67800386861427
10
57.019237886467053
20
127.07992765726138
10
11.70714732975271
20
153.24087533772462
42
-0.41421356237309265
10
11.139807953886805
20
155.35821471359048
42
1.2413454529722314
10
-3.219646771412954e-14
20
158.91515387125958
10
-1.9428902930940239e-14
20
145
10
2.9999999999999809
20
145
10
2.9999999999999858
20
130
10
-2.9976021664879227e-14
20
130
10
0
20
0
10
16
20
0
10
16.000000000000007
20
3.0000000000000071
10
32.000000000000007
20
3.0000000000000071
10
32.000000000000007
20
0
10
48.000000000000007
20
0
10
48.000000000000007
20
3.0000000000000071
10
64.000000000000014
20
3.0000000000000071
10
64.000000000000014
20
0
10
80
20
0
10
79.999999999999972
20
43.03996382863042
10
82.999999999999972
20
43.03996382863042
10
82.999999999999972
20
68.03996382863042
0
ARC
5
102
100
AcDbEntity
8
0
100
AcDbCircle
10
10.977758625461899
20
34.911133830004204
30
0
40
0.999999999999998
210
0
220
0
230
1
100
AcDbArc
50
-229.45839812649623
51
49.458398126494977
0
ARC
5
103
100
AcDbEntity
8
0
100
AcDbCircle
10
10.977758625461911
20
7.6111338300042775
30
0
40
0.99999999999999556
210
-0
220
0
230
1
100
AcDbArc
50
-49.458398126495503
51
229.4583981264953
0
ARC
5
104
100
AcDbEntity
8
0
100
AcDbCircle
10
10.977758625461911
20
7.6111338300042775
30
0
40
0.99999999999999545
210
0
220
0
230
1
100
AcDbArc
50
229.4583981264953
51
310.54160187350453
0
ARC
5
105
100
AcDbEntity
8
0
100
AcDbCircle
10
10.977758625461899
20
34.911133830004204
30
0
40
0.99999999999999656
210
0
220
-0
230
1
100
AcDbArc
50
49.458398126494977
51
130.54160187350379
0
LINE
5
106
100
AcDbEntity
8
0
100
AcDbLine
10
16.852758625461874
20
26.636133830004241
30
0
11
16.852758625461888
21
10.011133830004288
31
0
6
DASHED
0
LINE
5
107
100
AcDbEntity
8
0
100
AcDbLine
10
16.852758625461867
20
32.511133830004226
30
0
11
16.852758625461874
21
26.636133830004241
31
0
6
DASHED
0
LINE
5
108
100
AcDbEntity
8
0
100
AcDbLine
10
10.977758625461902
20
32.511133830004219
30
0
11
16.852758625461867
21
32.511133830004226
31
0
6
DASHED
0
LINE
5
109
100
AcDbEntity
8
0
100
AcDbLine
10
5.1027586254619361
20
32.511133830004219
30
0
11
10.977758625461902
21
32.511133830004219
31
0
6
DASHED
0
LINE
5
110
100
AcDbEntity
8
0
100
AcDbLine
10
5.1027586254619415
20
26.636133830004237
30
0
11
5.1027586254619361
21
32.511133830004219
31
0
6
DASHED
0
LINE
5
111
100
AcDbEntity
8
0
100
AcDbLine
10
5.1027586254619575
20
10.011133830004288
30
0
11
5.1027586254619415
21
26.636133830004237
31
0
6
DASHED
0
LINE
5
112
100
AcDbEntity
8
0
100
AcDbLine
10
5.1027586254619575
20
10.011133830004288
30
0
11
16.852758625461888
21
10.011133830004294
31
0
6
DASHED
0
LWPOLYLINE
5
113
100
AcDbEntity
8
0
100
AcDbPolyline
90
7
70
1
43
0.0
10
4.9027586254619573
20
9.8111338300042874
10
17.052758625461891
20
9.8111338300042927
10
17.052758625461873
20
26.636133830004241
10
17.05275862546187
20
32.711133830004229
10
10.977758625461902
20
32.711133830004222
10
4.902758625461936
20
32.711133830004222
10
4.9027586254619413
20
26.636133830004237
0
ENDSEC
0
SECTION
2
OBJECTS
0
DICTIONARY
5
C
100
AcDbDictionary
3
ACAD_GROUP
350
D
3
ACAD_MLINESTYLE
350
17
0
DICTIONARY
5
D
100
AcDbDictionary
0
DICTIONARY
5
1A
330
C
100
AcDbDictionary
0
DICTIONARY
5
17
100
AcDbDictionary
0
ENDSEC
0
EOF
